<?xml version="1.0" encoding="utf-8"?>
<svg viewBox="0 0 118.026 39.08" xmlns="http://www.w3.org/2000/svg">
  <style>.cls-1{fill:#fed136;}</style>
  <path class="cls-1" d="M 75.019 7.702 C 75.32 7.708 75.62 7.751 75.912 7.832 C 76.233 7.917 76.547 8.033 76.848 8.179 C 77.097 8.3 77.331 8.45 77.547 8.623 C 77.741 8.775 77.838 8.916 77.838 9.046 C 77.332 10.131 76.859 11.215 76.428 12.3 C 75.998 13.384 75.632 14.469 75.352 15.434 C 75.068 16.352 74.835 17.287 74.653 18.232 C 74.502 18.978 74.419 19.737 74.405 20.498 C 74.389 21.099 74.465 21.699 74.631 22.277 C 74.745 22.703 75.02 23.068 75.395 23.296 C 75.03 23.527 74.63 23.695 74.211 23.795 C 73.791 23.915 73.357 23.982 72.92 23.99 C 71.543 23.99 70.865 23.047 70.865 21.149 C 71.002 19.079 71.497 17.05 72.328 15.152 C 71.831 16.282 71.245 17.37 70.574 18.405 C 69.967 19.363 69.295 20.276 68.562 21.138 C 67.937 21.903 67.221 22.587 66.431 23.177 C 65.857 23.609 65.201 23.914 64.505 24.077 C 63.57 24.079 62.702 23.585 62.223 22.776 C 61.607 21.807 61.299 20.672 61.341 19.522 C 61.364 17.963 61.673 16.423 62.256 14.978 C 62.853 13.408 63.642 11.918 64.602 10.543 C 65.475 9.271 66.518 8.124 67.701 7.138 C 68.585 6.313 69.726 5.826 70.929 5.76 C 71.238 5.869 71.529 6.026 71.79 6.227 C 72.117 6.466 72.424 6.735 72.705 7.029 C 72.98 7.315 73.229 7.628 73.447 7.962 C 73.617 8.209 73.735 8.49 73.792 8.786 C 72.648 8.968 71.571 9.442 70.66 10.163 C 69.546 11.038 68.557 12.063 67.722 13.211 C 66.853 14.385 66.13 15.664 65.57 17.017 C 65.045 18.214 64.76 19.504 64.731 20.813 C 64.678 21.207 64.9 21.588 65.269 21.735 C 66.29 21.371 67.179 20.706 67.819 19.826 C 69.133 18.21 70.307 16.482 71.327 14.664 L 72.178 13.135 C 72.5 12.571 72.823 11.974 73.157 11.367 L 74.125 9.502 C 74.48 8.894 74.739 8.287 75.019 7.702 Z" style="fill: rgb(100, 161, 157);"/>
  <g transform="matrix(1, 0, 0, 1, 0.129699, -4.539478)">
    <path class="cls-1" d="M 77.242 26.977 C 77.352 26.297 77.562 25.397 77.862 24.277 C 78.162 23.157 78.502 21.957 78.862 20.697 C 79.222 19.437 79.692 18.167 80.132 16.887 C 80.572 15.607 81.022 14.467 81.442 13.457 C 81.683 12.869 81.956 12.295 82.262 11.737 C 82.473 11.368 82.736 11.032 83.042 10.737 C 83.382 10.791 83.716 10.874 84.042 10.987 C 84.385 11.102 84.719 11.242 85.042 11.407 C 85.347 11.562 85.644 11.732 85.932 11.917 C 86.154 12.063 86.355 12.238 86.532 12.437 C 85.867 13.224 85.303 14.091 84.852 15.017 C 84.304 16.195 83.842 17.412 83.472 18.657 C 84.738 17.524 85.865 16.437 86.852 15.397 C 87.862 14.32 88.778 13.159 89.592 11.927 C 89.814 11.794 90.073 11.735 90.332 11.757 C 90.672 11.749 91.011 11.803 91.332 11.917 C 91.59 11.983 91.817 12.139 91.972 12.357 C 91.554 13.428 89.079 19.21 88.602 18.657 C 88.119 18.102 87.746 17.461 87.502 16.767 C 86.504 17.457 85.558 18.219 84.672 19.047 C 83.897 19.78 83.224 20.614 82.672 21.527 C 82.082 22.514 81.606 23.564 81.252 24.657 C 80.872 25.837 80.492 27.247 80.142 28.877 C 79.88 28.831 79.625 28.754 79.382 28.647 C 79.073 28.51 78.775 28.35 78.492 28.167 C 78.213 27.988 77.949 27.787 77.702 27.567 C 77.505 27.408 77.348 27.206 77.242 26.977 Z" style="fill: rgb(100, 161, 157);"/>
    <path class="cls-1" d="M 84.204 27.706 C 84.314 27.026 84.524 26.126 84.824 25.006 C 85.124 23.886 85.464 22.686 85.824 21.426 C 86.184 20.166 86.654 18.896 87.094 17.616 C 87.534 16.336 87.984 15.196 88.404 14.186 C 88.645 13.598 88.918 13.024 89.224 12.466 C 89.435 12.097 89.698 11.761 90.004 11.466 C 90.344 11.52 90.678 11.603 91.004 11.716 C 91.347 11.831 91.681 11.971 92.004 12.136 C 92.309 12.291 92.606 12.461 92.894 12.646 C 93.116 12.792 93.317 12.967 93.494 13.166 C 92.829 13.953 92.265 14.82 91.814 15.746 C 91.266 16.924 90.804 18.141 90.434 19.386 C 91.7 18.253 92.827 17.166 93.814 16.126 C 94.824 15.049 95.74 13.888 96.554 12.656 C 96.776 12.523 97.035 12.464 97.294 12.486 C 97.634 12.478 97.973 12.532 98.294 12.646 C 98.552 12.712 98.779 12.868 98.934 13.086 C 98.516 14.157 98.299 15.296 98.294 16.446 C 98.242 17.253 96.041 19.939 95.564 19.386 C 95.081 18.831 94.708 18.19 94.464 17.496 C 93.466 18.186 92.52 18.948 91.634 19.776 C 90.859 20.509 90.186 21.343 89.634 22.256 C 89.044 23.243 88.568 24.293 88.214 25.386 C 87.834 26.566 87.454 27.976 87.104 29.606 C 86.842 29.56 86.587 29.483 86.344 29.376 C 86.035 29.239 85.737 29.079 85.454 28.896 C 85.175 28.717 84.911 28.516 84.664 28.296 C 84.467 28.137 84.31 27.935 84.204 27.706 Z" style="fill: rgb(100, 161, 157);"/>
    <path class="cls-1" d="M 91.335 28.745 C 91.445 28.065 91.655 27.165 91.955 26.045 C 92.255 24.925 92.595 23.725 92.955 22.465 C 93.315 21.205 93.785 19.935 94.225 18.655 C 94.665 17.375 95.115 16.235 95.535 15.225 C 95.776 14.637 96.049 14.063 96.355 13.505 C 96.566 13.136 96.829 12.8 97.135 12.505 C 97.475 12.559 97.809 12.642 98.135 12.755 C 98.478 12.87 98.812 13.01 99.135 13.175 C 99.44 13.33 99.737 13.5 100.025 13.685 C 100.247 13.831 100.448 14.006 100.625 14.205 C 99.96 14.992 99.396 15.859 98.945 16.785 C 98.397 17.963 95.699 25.332 95.345 26.425 C 94.965 27.605 94.585 29.015 94.235 30.645 C 93.973 30.599 93.718 30.522 93.475 30.415 C 93.166 30.278 92.868 30.118 92.585 29.935 C 92.306 29.756 92.042 29.555 91.795 29.335 C 91.598 29.176 91.441 28.974 91.335 28.745 Z" style="fill: rgb(100, 161, 157);"/>
  </g>
  <g transform="matrix(0.999288, -0.037784, 0.037784, 0.999288, -9.246886, 9.001575)">
    <path class="cls-1" d="M 114.214 20.885 C 112.937 20.784 111.764 20.139 110.994 19.115 C 110.144 17.96 109.717 16.548 109.784 15.115 C 109.789 14.12 109.934 13.13 110.214 12.175 C 110.497 11.132 110.899 10.125 111.414 9.175 C 111.935 8.212 112.552 7.304 113.254 6.465 C 113.932 5.647 114.704 4.912 115.554 4.275 C 116.583 3.411 117.863 2.902 119.204 2.825 C 120.16 3.446 120.93 4.313 121.434 5.335 L 121.754 5.335 L 122.074 5.335 C 123.324 5.335 123.944 6.445 123.944 8.665 C 123.953 10.106 123.709 11.538 123.224 12.895 C 122.758 14.205 122.083 15.431 121.224 16.525 C 120.363 17.611 119.321 18.542 118.144 19.275 C 116.937 20.034 115.607 20.578 114.214 20.885 Z M 116.064 9.735 C 115.648 10.298 115.27 10.89 114.934 11.505 C 114.589 12.129 114.282 12.774 114.014 13.435 C 113.767 14.042 113.567 14.667 113.414 15.305 C 113.281 15.835 113.207 16.378 113.194 16.925 C 113.194 17.478 113.292 18.026 113.484 18.545 C 113.674 19.065 113.884 19.365 114.124 19.435 C 115.179 19.198 116.173 18.745 117.044 18.105 C 117.943 17.435 118.721 16.617 119.344 15.685 C 120.013 14.667 120.525 13.555 120.864 12.385 C 121.24 11.109 121.426 9.785 121.414 8.455 C 121.423 7.969 121.386 7.484 121.304 7.005 C 121.243 6.68 121.124 6.368 120.954 6.085 C 119.914 6.39 118.95 6.912 118.124 7.615 C 117.366 8.248 116.676 8.959 116.064 9.735 Z" style="fill: rgb(100, 161, 157);"/>
    <path class="cls-1" d="M 107.851 15.812 L 108.761 13.872 C 109.111 13.172 109.491 12.472 109.911 11.782 C 110.331 11.092 110.721 10.462 111.111 9.892 C 111.449 9.388 111.816 8.904 112.211 8.442 C 112.438 8.151 112.704 7.892 113.001 7.672 C 113.308 7.681 113.613 7.721 113.911 7.792 C 114.271 7.882 114.641 7.982 115.021 8.112 C 115.401 8.242 115.741 8.382 116.021 8.522 C 116.258 8.616 116.473 8.759 116.651 8.942 C 115.951 9.842 115.341 10.662 114.831 11.422 C 114.321 12.182 113.781 13.062 113.191 14.042 C 113.191 14.042 113.703 15.64 112.271 15.602 C 111.671 16.742 111.151 17.872 110.691 18.992 C 110.231 20.112 109.841 21.202 109.521 22.242 C 109.218 23.207 108.971 24.189 108.781 25.182 C 108.612 26.002 108.522 26.836 108.511 27.672 C 108.511 28.712 106.887 30.107 106.391 29.742 C 105.93 29.416 105.527 29.014 105.201 28.552 C 104.914 28.183 104.752 27.731 104.741 27.262 C 104.758 26.544 104.835 25.828 104.971 25.122 C 105.121 24.252 105.341 23.322 105.621 22.302 C 105.901 21.282 106.241 20.222 106.621 19.112 C 107.001 18.002 107.411 16.902 107.851 15.812 Z" style="fill: rgb(100, 161, 157);"/>
  </g>
  <path class="cls-1" d="M 61.671 8.75 C 61.638 8.801 63.655 10.233 64.198 11.125 C 64.729 12.01 65.006 13.023 64.998 14.055 C 64.974 15.394 64.576 16.7 63.848 17.825 C 63.037 19.102 61.996 20.218 60.778 21.115 C 59.451 22.099 57.985 22.881 56.428 23.435 C 54.826 24.019 53.133 24.317 51.428 24.315 C 49.759 24.362 48.102 24.02 46.588 23.315 C 45.245 22.647 44.123 21.605 43.358 20.315 C 43.577 19.634 43.872 18.793 44.244 17.792 C 44.284 17.818 44.324 17.843 44.365 17.868 C 45.334 18.456 46.985 18.84 48.008 18.884 C 48.035 18.885 48.061 18.886 48.087 18.887 C 48.081 18.906 48.074 18.926 48.068 18.945 C 47.885 19.481 47.754 20.034 47.678 20.595 C 48.049 20.799 48.451 20.941 48.868 21.015 C 49.435 21.125 50.011 21.175 50.588 21.165 C 52.147 21.17 53.697 20.941 55.188 20.485 C 56.567 20.063 57.869 19.425 59.048 18.595 C 60.091 17.891 60.99 16.995 61.698 15.955 C 62.337 15.043 62.685 13.959 62.698 12.845 C 62.779 11.419 58.379 8.605 58.091 8.605 C 58.186 8.578 56.792 7.917 55.684 8.072 C 55.614 7.852 55.527 7.633 55.423 7.402 C 55.243 7.001 54.964 6.555 54.658 6.142 C 56.59 5.683 61.668 8.703 61.671 8.75 Z" style="fill: rgb(100, 161, 157);" transform="matrix(-0.790656, 0.61226, -0.61226, -0.790656, 106.324905, -5.940755)"/>
  <g transform="matrix(1, 0, 0, 1, -61.088406, -1.556392)">
    <path class="cls-1" d="M 75.455 19.503 L 76.255 21.443 C 76.605 22.143 76.995 22.843 77.405 23.533 C 77.815 24.223 78.215 24.853 78.605 25.423 C 78.946 25.925 79.313 26.409 79.705 26.873 C 79.935 27.165 80.204 27.424 80.505 27.643 C 80.808 27.634 81.11 27.594 81.405 27.523 C 81.775 27.433 82.145 27.333 82.525 27.203 C 82.905 27.073 83.245 26.933 83.525 26.793 C 83.765 26.699 83.983 26.556 84.165 26.373 C 83.455 25.473 81.548 25.821 81.048 25.061 C 80.548 24.301 79.21 21.345 78.62 20.365 L 81.716 19.846 C 82.208 19.844 82.699 19.749 83.186 19.817 C 83.315 19.694 85.619 19.803 85.681 19.636 C 85.749 19.461 87.729 19.792 87.986 18.437 C 86.636 17.956 79.242 18.249 77.81 18.287 C 77.22 17.147 77.208 17.054 76.748 15.934 C 76.288 14.814 76.068 14.113 75.808 13.073 C 75.507 12.107 75.256 11.125 75.058 10.133 C 74.897 9.312 74.81 8.349 74.798 7.513 C 74.798 6.473 74.471 5.208 73.975 5.573 C 73.517 5.899 73.118 6.302 72.795 6.763 C 72.505 7.132 72.34 7.584 72.325 8.053 C 72.342 8.771 72.419 9.487 72.555 10.193 C 72.715 11.063 72.935 11.993 73.215 13.013 C 73.495 14.033 73.825 15.093 74.215 16.203 C 74.605 17.313 75.005 18.413 75.455 19.503 Z" style="fill: rgb(100, 161, 157);" transform="matrix(-1, 0, 0, -1, 160.310993, 33.151814)"/>
    <path class="cls-1" d="M 68.242 13.867 C 68.074 13.593 68.095 12.897 68.052 12.578 C 67.968 12.187 68.181 12.047 68.172 11.647 C 68.757 11.744 69.608 12.053 70.201 12.056 L 71.631 12.057 C 71.981 11.357 72.89 9.23 73.3 8.54 C 73.71 7.85 74.11 7.22 74.5 6.65 C 74.841 6.148 75.208 5.664 75.6 5.2 C 75.83 4.908 76.099 4.649 76.4 4.43 C 76.703 4.439 77.005 4.479 77.3 4.55 C 77.67 4.64 78.04 4.74 78.42 4.87 C 78.8 5 79.14 5.14 79.42 5.28 C 79.66 5.374 79.878 5.517 80.06 5.7 C 79.35 6.6 78.999 7.29 78.499 8.05 C 77.999 8.81 76.791 11.247 76.201 12.227 L 77.611 12.227 C 78.103 12.229 78.594 12.324 79.081 12.256 C 79.21 12.379 81.514 12.27 81.576 12.437 C 81.644 12.612 81.938 13.707 81.936 13.895 C 80.586 14.376 76.045 13.954 74.613 13.916 C 74.023 15.056 74.4 14.76 73.94 15.88 C 73.48 17 73.26 17.96 73 19 C 72.699 19.966 72.448 20.948 72.25 21.94 C 72.089 22.761 72.002 23.594 71.99 24.43 C 71.99 25.47 72.38 26.05 73.16 26.17 C 73.846 26.077 73.547 27.679 73.25 27.74 C 72.643 27.735 72.043 27.616 71.48 27.39 C 70.907 27.164 70.366 26.865 69.87 26.5 C 69.412 26.174 69.013 25.771 68.69 25.31 C 68.4 24.941 68.235 24.489 68.22 24.02 C 68.237 23.302 68.314 22.586 68.45 21.88 C 68.61 21.01 68.83 20.08 69.11 19.06 C 69.39 18.04 69.72 16.98 70.11 15.87 C 70.5 14.76 70.122 15.735 70.572 14.645 L 68.242 13.867 Z" style="fill: rgb(100, 161, 157);"/>
  </g>
  <g transform="matrix(1, 0, 0, 1, 3.761281, -2.20489)">
    <path class="cls-1" d="M 27.89 12.57 C 27.89 12.57 31.18 14.63 30.72 15.75 C 30.26 16.87 29.87 17.96 29.55 19 C 29.247 19.965 29 20.947 28.81 21.94 C 28.641 22.76 28.551 23.593 28.54 24.43 C 28.54 25.47 28.93 26.05 29.71 26.17 C 30.396 26.076 31.068 25.898 31.71 25.64 C 32.323 25.393 32.896 25.056 33.41 24.64 C 33.527 24.801 33.609 24.985 33.65 25.18 C 33.445 25.456 33.203 25.701 32.93 25.91 C 32.572 26.207 32.198 26.484 31.81 26.74 C 31.435 26.995 31.045 27.226 30.64 27.43 C 30.374 27.576 30.087 27.68 29.79 27.74 C 29.183 27.735 28.583 27.616 28.02 27.39 C 27.448 27.162 26.907 26.863 26.41 26.5 C 25.952 26.174 25.553 25.771 25.23 25.31 C 24.943 24.94 24.781 24.488 24.77 24.02 C 24.782 23.301 24.859 22.585 25 21.88 C 25.15 21.01 25.37 20.08 25.65 19.06 C 25.93 18.04 26.27 16.98 26.65 15.87 C 27.03 14.76 27.44 13.66 27.89 12.57 Z" style="fill: rgb(100, 161, 157);"/>
    <path class="cls-1" d="M 29.42 9.665 C 29.42 9.665 32.71 10.947 32.25 12.067 C 31.79 13.187 32.048 12.332 31.728 13.372 C 31.425 14.337 28.059 12.519 28.439 11.409 C 28.819 10.299 28.97 10.755 29.42 9.665 Z" style="fill: rgb(100, 161, 157);"/>
  </g>
</svg>